<svg xmlns="http://www.w3.org/2000/svg" width="1440" height="560" preserveAspectRatio="none" viewBox="0 0 1440 560">
    <g mask="url(&quot;#SvgjsMask1002&quot;)" fill="none">
        <rect width="1440" height="560" x="0" y="0" fill="url(&quot;#SvgjsLinearGradient1003&quot;)"></rect>
        <path d="M0 0L181.35 0L0 71.48z" fill="rgba(255, 255, 255, .1)"></path>
        <path d="M0 71.48L181.35 0L794.62 0L0 151.46z" fill="rgba(255, 255, 255, .075)"></path>
        <path d="M0 151.46L794.62 0L1158.46 0L0 371.19z" fill="rgba(255, 255, 255, .05)"></path>
        <path d="M0 371.19L1158.46 0L1185.1100000000001 0L0 470.03999999999996z" fill="rgba(255, 255, 255, .025)"></path>
        <path d="M1440 560L1288.83 560L1440 450.4z" fill="rgba(0, 0, 0, .1)"></path>
        <path d="M1440 450.4L1288.83 560L962.3 560L1440 445.14z" fill="rgba(0, 0, 0, .075)"></path>
        <path d="M1440 445.14L962.3000000000001 560L490.44000000000005 560L1440 310.67999999999995z" fill="rgba(0, 0, 0, .05)"></path>
        <path d="M1440 310.68L490.44000000000005 560L233.39000000000004 560L1440 156.36z" fill="rgba(0, 0, 0, .025)"></path>
    </g>
    <defs>
        <mask id="SvgjsMask1002">
            <rect width="1440" height="560" fill="#ffffff"></rect>
        </mask>
        <linearGradient x1="15.28%" y1="-39.29%" x2="84.72%" y2="139.29%" gradientUnits="userSpaceOnUse" id="SvgjsLinearGradient1003">
            <stop stop-color="rgba(0, 0, 0, 1)" offset="0.22"></stop>
            <stop stop-color="rgba(190, 3, 170, 1)" offset="1"></stop>
        </linearGradient>
    </defs>
</svg>
