<?xml version="1.0" encoding="UTF-8"?><svg id="Layer_2" xmlns="http://www.w3.org/2000/svg" viewBox="0 0 302.19 54.45"><g id="Layer_1-2"><path d="M48.33,7.56c2.04-.37,12.77-.35,14.86,0s2.94,2.35,2.61,4.29c-.11.64-.78,1.42-1.14,1.98-6.09,9.36-13.38,18.22-19.52,27.59-.53.75-1.29,1.15-2.14,1.43-6.93-.19-14.89.77-21.74.16-1.86-.17-3.32-1.15-3.62-3.08-.54-3.52.37-8.01-.05-11.55-.17-1.38-1.41-2.62-2.79-2.79-3.49-.42-7.83.45-11.34-.05-1.4-.2-2.77-1.01-3.14-2.44-.4-1.55-.38-10.51-.13-12.33.19-1.37,1.2-2.41,2.43-2.93,3.81.08,8.22-.46,11.96-.11,1.44.13,2.98,1.05,3.21,2.59.51,3.33-1,11.38,1.01,13.72.51.59,1.22,1.02,2.01,1.11,2.11.25,10.16.24,12.05-.24.47-.12,1-.36,1.44-.57,4.27-2.11,8.7-12.11,12.35-15.78.47-.47,1.02-.87,1.69-.99Z" style="fill:#905ca6;"/><text transform="translate(68.38 42.5)" style="fill:#905ca6; font-family:Sculpin-BoldItalic, Sculpin; font-size:50px; font-style:italic; font-weight:700;"><tspan x="0" y="0" style="letter-spacing:0em;">VE</tspan><tspan x="72.5" y="0" style="letter-spacing:-.06em;">S</tspan><tspan x="105.9" y="0" style="letter-spacing:0em;">TIGE</tspan></text></g></svg>