<?xml version="1.0" encoding="UTF-8"?><svg id="Layer_2" xmlns="http://www.w3.org/2000/svg" viewBox="0 0 57.82 31.53"><g id="Layer_1-2"><path d="M42.43.24c1.79-.32,11.21-.31,13.04,0s2.58,2.07,2.29,3.76c-.1.56-.68,1.24-1.01,1.74-5.35,8.21-11.75,16-17.13,24.22-.46.66-1.14,1.01-1.88,1.25-6.08-.16-13.07.68-19.08.14-1.63-.15-2.92-1.01-3.18-2.7-.47-3.09.33-7.03-.05-10.14-.15-1.21-1.23-2.3-2.45-2.45-3.07-.37-6.88.39-9.95-.05-1.23-.18-2.43-.89-2.76-2.14C-.08,12.51-.06,4.64.16,3.05.32,1.85,1.21.93,2.29.48c3.34.07,7.21-.41,10.5-.1,1.26.12,2.61.93,2.82,2.27.45,2.92-.88,9.99.89,12.04.45.52,1.07.9,1.77.98,1.86.22,8.92.21,10.58-.21.41-.1.88-.31,1.26-.5,3.75-1.85,7.63-10.63,10.84-13.85.41-.41.89-.76,1.48-.87Z" style="fill:#ae52e3;"/></g></svg>