<svg width="137" height="27" viewBox="0 0 137 27" fill="none" xmlns="http://www.w3.org/2000/svg">
<path d="M34.5378 22.7614V22.4651C36.8197 22.4651 36.8197 21.7268 36.8197 18.3266V14.5366C36.8197 12.5557 36.7884 11.6979 34.418 12.2022V11.9059L43.2172 9.92505V18.3266C43.2172 21.7268 43.2172 22.4651 45.4991 22.4651V22.7614H34.5378Z" fill="#EFEFEF"/>
<path d="M46.6765 22.7614V22.465C48.9583 22.465 48.9583 21.7268 48.9583 18.3266V5.23035C48.9583 3.48868 49.0469 2.59965 46.5566 3.12995V2.8336L55.3559 0.852783V18.3266C55.3559 21.7268 55.3559 22.465 57.6378 22.465V22.7614H46.6765Z" fill="#EFEFEF"/>
<path d="M66.5409 21.5761C67.2234 21.5761 67.8121 21.1914 68.406 20.6299V20.9262C67.0723 22.3455 65.4729 22.9954 63.7537 22.9954C60.1694 22.9954 57.7729 20.1568 57.7729 15.93C57.7729 11.3756 60.7633 7.00328 66.4836 7.00328V7.29962C64.6498 7.388 64.4675 10.0759 64.4675 15.0461C64.4675 18.5035 64.7332 21.5813 66.5409 21.5813V21.5761ZM77.0438 20.8378C76.007 21.7529 74.168 22.8758 71.8288 22.8758C69.25 22.8758 68.156 21.4565 68.156 19.5329V11.49C68.156 8.26664 67.7392 7.35161 66.468 7.29442V6.99808C66.89 6.99808 67.5464 7.10726 68.182 7.34121L68.1612 5.45917C68.1612 3.47835 68.2497 2.59452 65.7595 3.12482V2.82848L74.5587 0.847656V18.2019C74.5587 19.6213 74.6473 20.8638 76.0122 20.8638C76.3978 20.8638 76.752 20.7183 76.9291 20.5987L77.049 20.8326L77.0438 20.8378Z" fill="#EFEFEF"/>
<path d="M95.9711 16.1689C95.9711 11.4118 91.1417 9.93013 87.2031 8.30804C84.567 7.21625 82.3737 6.29602 82.3737 4.37759C82.3737 2.81269 83.9157 2.13162 86.3122 2.13162C86.3747 2.13162 86.5415 2.13162 86.9166 2.13162C87.3281 2.13162 87.4792 2.13162 87.5157 2.13162C91.1885 2.42796 94.0643 5.23543 94.3873 9.16587H94.6843L94.2675 1.92366C93.4704 2.7815 92.0169 2.51635 90.4175 2.18881C89.4693 2.01204 88.5212 1.83528 87.5157 1.83528C87.4375 1.83528 86.9791 1.83008 86.9218 1.83008C86.8592 1.83008 86.2758 1.83008 86.2758 1.83008C81.0556 1.84568 77.6328 4.29441 77.6328 8.06888C77.6328 12.5036 82.2538 14.3077 86.1351 15.8414C89.0369 16.9956 91.4073 17.8794 91.4073 20.0682C91.4073 22.1322 89.3443 22.6677 87.2187 22.6989C87.1354 22.6989 87.0312 22.6989 86.8957 22.6989C86.5206 22.6989 86.4216 22.6989 86.3956 22.6989C81.3994 22.3921 78.383 17.791 78.1486 14.3649H77.8516L78.3257 22.9068C79.3312 21.7839 81.0817 22.1998 83.0353 22.5533C84.1241 22.7561 85.2078 22.99 86.3852 22.9952C86.3852 22.9952 86.406 22.9952 86.4164 22.9952C86.5102 22.9952 86.8176 22.9952 86.8697 22.9952C86.9009 22.9952 87.052 22.9952 87.2031 22.9952C87.2031 22.9952 87.2291 22.9952 87.2396 22.9952C87.3802 22.9952 87.5105 22.9952 87.5105 22.9952C91.9752 22.8964 95.9659 20.7649 95.9659 16.1689H95.9711Z" fill="#EFEFEF"/>
<path d="M96.1481 22.7614V22.465C98.43 22.465 98.43 21.7268 98.43 18.3266V5.4643C98.43 3.48348 98.5186 2.59965 96.0283 3.12995V2.8336L104.828 0.852783V18.3266C104.828 21.7268 104.828 22.465 106.516 22.465V22.7614H96.1481ZM106.406 15.0149C106.109 13.7723 105.651 13.2992 104.755 13.8919V13.5955C105.781 12.8573 107.135 12.353 108.678 12.353C111.788 12.353 112.408 15.1293 113.278 17.9107C114.304 21.2537 114.82 22.5534 116.44 22.465V22.7614C114.95 23.0577 113.382 23.1149 112.246 23.1149C107.052 23.1149 107.38 19.0649 106.406 15.0149ZM106.531 11.6147C107.537 10.6113 109.73 7.5335 106.5 7.5335V7.23716H115.002V7.5335C112.126 7.5335 109.553 9.1296 106.828 11.6147H106.531Z" fill="#EFEFEF"/>
<path d="M118.404 24.1702C118.195 22.4078 119.456 20.952 121.16 20.7493C122.249 20.6193 123.327 20.9104 124.067 21.8931C123.27 22.4649 123.004 23.2396 123.087 23.9415C123.186 24.7941 123.739 25.1736 124.359 25.1008C124.979 25.0281 125.776 24.4874 126.515 23.1772H126.812C125.52 25.8547 123.785 26.8061 122.311 26.9777C120.43 27.2012 118.643 26.2186 118.399 24.165L118.404 24.1702ZM126.604 23.5879L120.623 11.2299C119.17 8.24567 118.758 7.5334 117.159 7.5334V7.23706H127.792V7.5334C125.776 7.5334 126.338 9.27507 126.812 10.2837L129.923 16.7564L126.604 23.5827V23.5879ZM131.048 13.8034C132.647 9.81057 133.241 7.5386 130.428 7.5386V7.24226H136.888V7.5386C135.643 7.62699 133.689 8.98913 131.35 13.8034H131.053H131.048Z" fill="#EFEFEF"/>
<path d="M25.6916 2.36055V2.06421H0.867188V2.36055C2.5864 2.36055 3.23762 3.51473 5.01414 7.38799L12.5995 23.7649L16.1838 15.8416L12.1827 6.35339C11.146 3.86826 11.0574 2.36055 13.0423 2.36055C14.7616 2.36055 15.4128 3.51473 17.1893 7.38799L24.7747 23.7649L28.359 15.8416L24.3579 6.35339C23.4097 4.13861 23.2326 2.36055 25.6916 2.36055Z" fill="#EFEFEF"/>
<path d="M42.0658 8.11585C42.1127 8.04306 42.1596 7.97028 42.196 7.89749C42.2273 7.8455 42.2533 7.79351 42.2794 7.73632C42.2898 7.71033 42.3054 7.68433 42.3159 7.66354C42.4982 7.26321 42.6024 6.8161 42.6024 6.34299C42.6024 5.55274 42.3159 4.83528 41.8418 4.27898C41.8314 4.26339 41.8209 4.24259 41.8105 4.22699C41.0864 3.20799 39.7943 2.25137 37.6115 2.07461L36.9134 2.06421H29.2446V2.36055C32.0318 2.36055 31.6151 5.67232 30.3126 10.5178H30.6096C32.4017 6.55095 34.5377 2.80247 37.1426 2.39694C38.1324 2.27217 38.8253 2.83886 39.0494 3.1664C37.45 3.34316 36.21 4.6949 36.21 6.33779C36.21 7.58035 36.9238 8.65655 37.9657 9.18165C38.9504 9.72234 40.1851 9.71194 41.201 8.99448C41.5604 8.73973 41.8418 8.44859 42.0554 8.13145C42.0554 8.12625 42.0658 8.11585 42.071 8.11065L42.0658 8.11585Z" fill="#EFEFEF"/>
</svg>
