<svg width="2915" height="390" viewBox="0 0 2915 390" fill="none" xmlns="http://www.w3.org/2000/svg">
<path d="M176.624 389.091C172.89 389.091 169.327 387.903 165.933 385.527C162.878 383.491 160.503 380.606 158.806 376.873L0.479971 7.27676H36.116L182.223 347.346H171.024L314.586 7.27676H350.731L194.442 376.873C192.745 380.606 190.199 383.491 186.805 385.527C183.751 387.903 180.357 389.091 176.624 389.091ZM482.417 384C476.987 384 472.405 382.133 468.672 378.4C464.938 374.667 463.072 370.085 463.072 364.655V26.622C463.072 21.1917 464.938 16.61 468.672 12.8767C472.405 9.14341 476.987 7.27676 482.417 7.27676H749.178V39.3491H484.962L495.144 29.1674V362.109L484.962 351.928H749.178V384H482.417ZM488.017 179.348H733.905V211.929H488.017V179.348ZM1017.72 388.582C988.872 387.564 961.721 383.83 936.267 377.382C910.812 370.933 886.037 361.261 861.94 348.364L876.704 318.837C898.425 330.716 920.824 339.71 943.903 345.819C967.321 351.928 991.927 355.152 1017.72 355.491C1045.89 356.509 1070.67 354.134 1092.05 348.364C1113.43 342.594 1129.89 334.11 1141.43 322.91C1152.97 311.71 1159.08 298.813 1159.76 284.219C1160.43 265.553 1154.83 250.959 1142.96 240.438C1131.42 229.917 1116.65 222.281 1098.66 217.529C1080.68 212.438 1057.26 207.856 1028.41 203.784C992.775 199.032 964.945 194.281 944.921 189.529C925.236 184.778 908.267 175.614 894.012 162.039C879.758 148.463 872.97 128.948 873.649 103.494C874.328 82.1123 881.794 63.6155 896.049 48.0036C910.303 32.0522 929.818 20.1736 954.594 12.3676C979.709 4.56163 1008.39 0.998032 1040.63 1.6768C1065.07 2.3556 1089.33 5.5798 1113.43 11.3494C1137.53 16.7797 1159.92 24.416 1180.63 34.2583L1167.9 63.2761C1128.53 44.9491 1085.94 35.1068 1040.12 33.7492C1013.31 33.0704 990.06 35.2764 970.375 40.3673C950.691 45.4582 935.248 53.4338 924.049 64.2943C913.188 75.1548 907.418 88.5607 906.74 104.512C906.061 121.482 911.321 134.548 922.521 143.712C933.721 152.536 946.788 158.645 961.721 162.039C976.654 165.093 999.733 168.657 1030.96 172.73C1064.56 177.142 1092.56 182.572 1114.96 189.02C1137.69 195.129 1156.53 205.82 1171.46 221.093C1186.74 236.365 1193.86 257.577 1192.85 284.728C1192.51 306.11 1184.87 324.776 1169.94 340.728C1155 356.679 1134.3 368.897 1107.83 377.382C1081.36 385.527 1051.32 389.261 1017.72 388.582ZM1459.98 16.4403H1492.06V384H1459.98V16.4403ZM1317.44 7.27676H1634.6V39.3491H1317.44V7.27676ZM1876.8 20.0039H1908.87V372.291H1876.8V20.0039ZM1757.16 351.928H2028.51V384H1757.16V351.928ZM1757.16 7.27676H2028.51V39.3491H1757.16V7.27676ZM2334.65 389.6C2300.03 389.6 2267.79 380.776 2237.93 363.127C2208.4 345.479 2184.98 321.552 2167.67 291.346C2150.7 261.141 2142.22 228.39 2142.22 193.093C2142.22 157.457 2150.7 125.045 2167.67 95.8576C2184.98 66.3307 2208.4 43.0824 2237.93 26.1129C2267.45 9.14341 2299.7 0.658646 2334.65 0.658646C2363.16 0.658646 2389.97 6.76767 2415.09 18.9857C2440.54 31.2038 2462.26 48.1733 2480.25 69.8943L2456.83 91.2758C2442.24 72.9488 2424.25 58.5247 2402.87 48.0036C2381.83 37.4825 2359.09 32.2219 2334.65 32.2219C2305.46 32.2219 2278.65 39.3491 2254.22 53.6035C2229.78 67.8579 2210.44 87.2032 2196.18 111.639C2181.93 136.075 2174.8 163.227 2174.8 193.093C2174.8 222.959 2181.93 250.62 2196.18 276.074C2210.44 301.189 2229.78 321.213 2254.22 336.146C2278.65 350.74 2305.46 358.037 2334.65 358.037C2362.14 358.037 2387.26 352.437 2410 341.237C2433.08 330.037 2451.74 313.916 2466 292.874L2489.41 304.074L2493.49 308.655C2476.52 334.449 2454.12 354.473 2426.29 368.727C2398.46 382.642 2367.91 389.6 2334.65 389.6ZM2480.76 300.001H2496.03C2496.03 303.055 2495.18 305.94 2493.49 308.655L2480.76 300.001ZM2463.96 212.947H2496.03V300.001L2463.96 321.382V212.947ZM2647.52 384C2642.09 384 2637.51 382.133 2633.78 378.4C2630.04 374.667 2628.18 370.085 2628.18 364.655V26.622C2628.18 21.1917 2630.04 16.61 2633.78 12.8767C2637.51 9.14341 2642.09 7.27676 2647.52 7.27676H2914.28V39.3491H2650.07L2660.25 29.1674V362.109L2650.07 351.928H2914.28V384H2647.52ZM2653.12 179.348H2899.01V211.929H2653.12V179.348Z" fill="white"/>
</svg>


